<?xml version="1.0" encoding="utf-8"?>
<!-- Generator: Adobe Illustrator 25.2.3, SVG Export Plug-In . SVG Version: 6.00 Build 0)  -->
<svg version="1.1" xmlns="http://www.w3.org/2000/svg" xmlns:xlink="http://www.w3.org/1999/xlink" x="0px" y="0px"
	 viewBox="0 0 239.49 213.29" style="enable-background:new 0 0 239.49 213.29;" xml:space="preserve">
<style type="text/css">
	.st0{display:none;}
	.st1{display:inline;fill:#232323;}
	.st2{fill:none;stroke:#000000;stroke-width:2.651;stroke-miterlimit:10;}
	.st3{fill:#987942;}
	.st4{fill:none;stroke:#987942;stroke-width:5;stroke-miterlimit:10;}
	.st5{fill:none;}
	.st6{display:inline;fill:#272626;}
	.st7{display:inline;fill:#AC732A;}
	.st8{display:inline;fill:#636363;}
	.st9{display:inline;fill:#CCCCCC;}
</style>
<g id="Layer_2" class="st0">
	<rect x="-235.91" y="-172.22" class="st1" width="720" height="602.04"/>
</g>
<g id="Layer_1">
	<path class="st2" d="M51.62,49.51"/>
	<g>
		<path class="st3" d="M0.22,175.61v-23.56h15.91v4.45H5.53v4.62h9.42v4.35H5.53v5.68h11.39v4.45H0.22z"/>
		<path class="st3" d="M38.3,175.95c-1.47-0.02-2.67-0.18-3.59-0.48c-0.92-0.29-1.64-0.71-2.18-1.24c-0.53-0.53-0.9-1.18-1.09-1.94
			c-0.19-0.76-0.29-1.62-0.29-2.57v-19.69l5.07-0.82v19.48c0,0.45,0.03,0.86,0.1,1.22c0.07,0.36,0.2,0.67,0.39,0.92
			c0.19,0.25,0.47,0.45,0.83,0.61c0.36,0.16,0.85,0.26,1.46,0.31L38.3,175.95z"/>
		<path class="st3" d="M51.73,166.8c0-1.59,0.24-2.97,0.73-4.17c0.49-1.19,1.13-2.18,1.92-2.97c0.79-0.79,1.71-1.39,2.74-1.8
			c1.03-0.41,2.09-0.61,3.18-0.61c2.54,0,4.54,0.78,6.02,2.33c1.47,1.55,2.21,3.84,2.21,6.85c0,0.29-0.01,0.62-0.03,0.97
			c-0.02,0.35-0.05,0.66-0.07,0.94H56.93c0.11,1.04,0.6,1.87,1.46,2.48s2.02,0.92,3.47,0.92c0.93,0,1.84-0.08,2.74-0.25
			c0.9-0.17,1.63-0.38,2.19-0.63l0.68,4.11c-0.27,0.14-0.63,0.27-1.09,0.41c-0.45,0.14-0.96,0.25-1.51,0.36
			c-0.56,0.1-1.15,0.19-1.78,0.25c-0.64,0.07-1.27,0.1-1.9,0.1c-1.61,0-3.01-0.24-4.2-0.71c-1.19-0.48-2.18-1.13-2.96-1.96
			c-0.78-0.83-1.36-1.81-1.73-2.94S51.73,168.12,51.73,166.8z M63.63,164.86c-0.02-0.43-0.1-0.85-0.22-1.26
			c-0.12-0.41-0.32-0.77-0.58-1.09c-0.26-0.32-0.59-0.58-0.99-0.78c-0.4-0.2-0.89-0.31-1.48-0.31c-0.57,0-1.05,0.1-1.46,0.29
			c-0.41,0.19-0.75,0.45-1.02,0.77c-0.27,0.32-0.48,0.69-0.63,1.1c-0.15,0.42-0.26,0.84-0.32,1.27H63.63z"/>
		<path class="st3" d="M81.58,163.16h9.86v4.59h-9.86V163.16z"/>
		<path class="st3" d="M111.95,152.05c0.41,0.75,0.88,1.67,1.41,2.77c0.53,1.1,1.09,2.29,1.67,3.57c0.58,1.28,1.15,2.59,1.72,3.93
			c0.57,1.34,1.1,2.6,1.6,3.77c0.5-1.18,1.03-2.44,1.6-3.77c0.57-1.34,1.14-2.65,1.72-3.93c0.58-1.28,1.14-2.47,1.67-3.57
			c0.53-1.1,1.01-2.02,1.41-2.77h4.83c0.23,1.56,0.44,3.31,0.63,5.25c0.19,1.94,0.36,3.96,0.51,6.05c0.15,2.1,0.28,4.2,0.41,6.31
			c0.12,2.11,0.23,4.09,0.32,5.95h-5.17c-0.07-2.29-0.16-4.78-0.27-7.48c-0.11-2.7-0.28-5.42-0.51-8.16
			c-0.41,0.95-0.86,2.01-1.36,3.16c-0.5,1.16-1,2.31-1.48,3.47c-0.49,1.16-0.96,2.26-1.42,3.31c-0.46,1.05-0.84,1.95-1.16,2.7h-3.71
			c-0.32-0.75-0.71-1.65-1.16-2.7c-0.46-1.05-0.93-2.16-1.42-3.31c-0.49-1.16-0.98-2.31-1.48-3.47c-0.5-1.16-0.96-2.21-1.36-3.16
			c-0.23,2.74-0.4,5.46-0.51,8.16c-0.11,2.7-0.2,5.19-0.27,7.48h-5.17c0.09-1.86,0.2-3.84,0.32-5.95c0.12-2.11,0.26-4.21,0.41-6.31
			c0.15-2.1,0.32-4.11,0.51-6.05s0.4-3.69,0.63-5.25H111.95z"/>
		<path class="st3" d="M145.67,166.8c0-1.59,0.24-2.97,0.73-4.17c0.49-1.19,1.13-2.18,1.92-2.97c0.79-0.79,1.71-1.39,2.74-1.8
			c1.03-0.41,2.09-0.61,3.18-0.61c2.54,0,4.54,0.78,6.02,2.33c1.47,1.55,2.21,3.84,2.21,6.85c0,0.29-0.01,0.62-0.03,0.97
			c-0.02,0.35-0.05,0.66-0.07,0.94h-11.49c0.11,1.04,0.6,1.87,1.46,2.48s2.02,0.92,3.47,0.92c0.93,0,1.84-0.08,2.74-0.25
			c0.9-0.17,1.63-0.38,2.19-0.63l0.68,4.11c-0.27,0.14-0.63,0.27-1.09,0.41c-0.45,0.14-0.96,0.25-1.51,0.36
			c-0.56,0.1-1.15,0.19-1.78,0.25c-0.64,0.07-1.27,0.1-1.9,0.1c-1.61,0-3.01-0.24-4.2-0.71c-1.19-0.48-2.18-1.13-2.96-1.96
			c-0.78-0.83-1.36-1.81-1.73-2.94S145.67,168.12,145.67,166.8z M157.57,164.86c-0.02-0.43-0.1-0.85-0.22-1.26
			c-0.12-0.41-0.32-0.77-0.58-1.09c-0.26-0.32-0.59-0.58-0.99-0.78c-0.4-0.2-0.89-0.31-1.48-0.31c-0.57,0-1.05,0.1-1.46,0.29
			c-0.41,0.19-0.75,0.45-1.02,0.77c-0.27,0.32-0.48,0.69-0.63,1.1c-0.15,0.42-0.26,0.84-0.32,1.27H157.57z"/>
		<path class="st3" d="M176.89,153.27l5.07-0.82v5.27h6.09v4.22h-6.09v6.29c0,1.07,0.19,1.92,0.56,2.55
			c0.37,0.63,1.13,0.95,2.26,0.95c0.54,0,1.1-0.05,1.68-0.15c0.58-0.1,1.11-0.24,1.58-0.43l0.71,3.94
			c-0.61,0.25-1.29,0.46-2.04,0.65s-1.67,0.27-2.75,0.27c-1.38,0-2.53-0.19-3.43-0.56c-0.91-0.37-1.63-0.9-2.18-1.56
			s-0.92-1.48-1.14-2.43c-0.22-0.95-0.32-2.01-0.32-3.16V153.27z"/>
		<path class="st3" d="M208.57,157.25c1.5,0,2.74,0.17,3.74,0.51c1,0.34,1.8,0.83,2.4,1.46c0.6,0.64,1.03,1.41,1.27,2.31
			c0.25,0.91,0.37,1.92,0.37,3.03v10.54c-0.73,0.16-1.73,0.35-3.03,0.56c-1.29,0.22-2.86,0.32-4.69,0.32c-1.16,0-2.21-0.1-3.15-0.31
			s-1.75-0.54-2.43-1c-0.68-0.46-1.2-1.07-1.56-1.82c-0.36-0.75-0.54-1.67-0.54-2.75c0-1.04,0.21-1.93,0.63-2.65
			c0.42-0.73,0.98-1.3,1.68-1.73c0.7-0.43,1.51-0.74,2.41-0.94c0.91-0.19,1.85-0.29,2.82-0.29c0.66,0,1.24,0.03,1.75,0.08
			c0.51,0.06,0.92,0.13,1.24,0.22v-0.48c0-0.86-0.26-1.55-0.78-2.07c-0.52-0.52-1.43-0.78-2.72-0.78c-0.86,0-1.71,0.06-2.55,0.19
			c-0.84,0.12-1.56,0.3-2.18,0.53l-0.65-4.08c0.29-0.09,0.66-0.19,1.1-0.29s0.92-0.19,1.45-0.27c0.52-0.08,1.07-0.15,1.65-0.2
			S207.99,157.25,208.57,157.25z M208.98,172.07c0.5,0,0.97-0.01,1.43-0.03s0.82-0.06,1.09-0.1v-3.84c-0.2-0.04-0.51-0.09-0.92-0.14
			c-0.41-0.05-0.78-0.07-1.12-0.07c-0.48,0-0.92,0.03-1.34,0.08c-0.42,0.06-0.79,0.16-1.1,0.32c-0.32,0.16-0.57,0.37-0.75,0.65
			c-0.18,0.27-0.27,0.61-0.27,1.02c0,0.79,0.27,1.34,0.8,1.65C207.32,171.92,208.05,172.07,208.98,172.07z"/>
		<path class="st3" d="M238.77,175.95c-1.47-0.02-2.67-0.18-3.59-0.48c-0.92-0.29-1.64-0.71-2.18-1.24
			c-0.53-0.53-0.9-1.18-1.09-1.94c-0.19-0.76-0.29-1.62-0.29-2.57v-19.69l5.07-0.82v19.48c0,0.45,0.03,0.86,0.1,1.22
			c0.07,0.36,0.2,0.67,0.39,0.92c0.19,0.25,0.47,0.45,0.83,0.61c0.36,0.16,0.85,0.26,1.46,0.31L238.77,175.95z"/>
	</g>
	<g>
		<g>
			<path class="st3" d="M93.09,212.96c-0.26-0.76-0.53-1.52-0.81-2.27c-0.28-0.75-0.55-1.51-0.81-2.3h-8.2
				c-0.26,0.78-0.53,1.55-0.8,2.31c-0.27,0.76-0.54,1.51-0.8,2.25H78c0.73-2.07,1.42-3.99,2.07-5.74c0.65-1.75,1.29-3.42,1.92-4.98
				c0.62-1.57,1.24-3.06,1.86-4.48c0.62-1.42,1.25-2.82,1.9-4.2h3.37c0.65,1.38,1.29,2.78,1.9,4.2c0.62,1.42,1.24,2.91,1.86,4.48
				s1.27,3.23,1.93,4.98c0.66,1.75,1.36,3.67,2.09,5.74H93.09z M87.36,197.31c-0.43,0.99-0.92,2.19-1.47,3.61
				c-0.55,1.42-1.12,2.96-1.72,4.62h6.38c-0.6-1.66-1.18-3.21-1.74-4.65S87.77,198.26,87.36,197.31z"/>
			<path class="st3" d="M120.39,201.37c-0.28-0.09-0.67-0.19-1.16-0.29s-1.07-0.15-1.72-0.15c-0.37,0-0.77,0.04-1.19,0.11
				c-0.42,0.08-0.71,0.14-0.88,0.2v11.73h-3.39v-13.94c0.65-0.24,1.47-0.47,2.45-0.69c0.98-0.21,2.07-0.32,3.26-0.32
				c0.22,0,0.48,0.01,0.78,0.04c0.3,0.03,0.6,0.07,0.9,0.11c0.3,0.05,0.59,0.1,0.87,0.17s0.5,0.13,0.67,0.18L120.39,201.37z"/>
			<path class="st3" d="M136.04,194.45l3.39-0.56v4.42h5.21v2.83h-5.21v5.96c0,1.18,0.19,2.02,0.56,2.52
				c0.37,0.5,1.01,0.76,1.9,0.76c0.62,0,1.16-0.06,1.64-0.2s0.85-0.25,1.13-0.36l0.56,2.69c-0.39,0.17-0.91,0.34-1.54,0.52
				c-0.63,0.18-1.38,0.27-2.24,0.27c-1.05,0-1.92-0.14-2.62-0.42c-0.7-0.28-1.26-0.69-1.67-1.22s-0.7-1.18-0.87-1.93
				c-0.17-0.76-0.25-1.62-0.25-2.59V194.45z"/>
			<path class="st3" d="M164.46,210.52c0.9,0,1.55-0.11,1.96-0.32c0.41-0.21,0.62-0.58,0.62-1.11c0-0.49-0.22-0.89-0.66-1.2
				c-0.44-0.32-1.16-0.66-2.17-1.04c-0.62-0.22-1.18-0.46-1.69-0.71c-0.51-0.25-0.96-0.55-1.33-0.88c-0.37-0.34-0.67-0.74-0.88-1.22
				c-0.21-0.48-0.32-1.06-0.32-1.75c0-1.34,0.49-2.4,1.48-3.18c0.99-0.77,2.33-1.16,4.03-1.16c0.86,0,1.68,0.08,2.46,0.24
				c0.78,0.16,1.37,0.31,1.76,0.46l-0.62,2.74c-0.37-0.17-0.85-0.32-1.43-0.46c-0.58-0.14-1.25-0.21-2.02-0.21
				c-0.69,0-1.25,0.12-1.68,0.35c-0.43,0.23-0.64,0.59-0.64,1.08c0,0.24,0.04,0.46,0.13,0.64c0.08,0.19,0.23,0.36,0.43,0.52
				c0.21,0.16,0.48,0.32,0.81,0.48c0.34,0.16,0.75,0.32,1.23,0.49c0.8,0.3,1.48,0.59,2.04,0.88c0.56,0.29,1.02,0.62,1.39,0.98
				c0.36,0.36,0.63,0.78,0.8,1.25s0.25,1.03,0.25,1.68c0,1.4-0.52,2.46-1.55,3.18c-1.04,0.72-2.52,1.08-4.44,1.08
				c-1.29,0-2.32-0.11-3.11-0.32c-0.78-0.21-1.33-0.39-1.65-0.52l0.59-2.83c0.5,0.21,1.11,0.4,1.81,0.59
				C162.77,210.43,163.57,210.52,164.46,210.52z"/>
		</g>
	</g>
	<path class="st3" d="M140.27,130.85h-20.22c-4.38-2.53-8.86-5.13-13.21-7.64c-16.49-9.51-31.11-17.85-31.11-17.85l28.54,5.48
		c0,0-15.98-9.47-19.03-23.06c-0.68-3.01-1.66-9.88,2.32-18.5c-0.2,3.89,0.18,9.32,2.78,15.22c2.11,4.81,4.86,8.05,6.82,10.31
		c0.92,1.06,5.07,5.79,12.63,10.76c3.58,2.36,14.91,6.83,22.9,14.94c0.56,0.56,1.33,1.51,2.22,2.71
		C136.4,125.2,138.29,127.91,140.27,130.85z"/>
	<polygon class="st4" points="124.09,5.46 50.39,133.1 197.78,133.1 	"/>
	<path class="st3" d="M175.36,130.69c-0.85-4.12-2.06-7.83-3.31-11c-1.97-5-4.05-8.64-5.02-10.34
		c-10.68-18.75-27.23-27.43-33.85-30.47c1.04-3.46,2.76-7.34,5.72-11.06c11.95-14.96,33.6-14.02,36.59-13.86
		c-1.47-0.61-3.64-1.41-6.32-2.05c-13.61-3.28-25.16,1.16-28.52,2.51c-9.86,3.95-16.03,10.14-19.12,13.78
		c-1.09-0.86-2.62-2.14-4.35-3.75c-1.99-1.88-7.44-7.23-14.33-19.04c-3.21-5.47-7.04-12.91-10.48-22.19
		c-1.92,4.95-4.56,13.97-2.74,24.89c1.57,9.45,5.78,16.08,8.34,20.02c3.73,5.74,7.41,9.3,11.74,13.49
		c1.59,1.54,8.56,8.2,20.04,15.71c8.86,5.81,10.21,5.43,16.85,10.34c5.6,4.14,10.41,8.67,13.42,12.03c0.23,0.27,0.47,0.53,0.69,0.79
		c2.71,3.2,4.83,6.66,6.49,10.21H175.36z"/>
	<line class="st5" x1="37.41" y1="141.14" x2="192.26" y2="47.04"/>
</g>
<g id="Layer_3" class="st0">
	<path class="st6" d="M-75.67-82.3h-51.02c-2.76,0-4.99-2.23-4.99-4.99v-51.02c0-2.76,2.23-4.99,4.99-4.99h51.02
		c2.76,0,4.99,2.23,4.99,4.99v51.02C-70.68-84.53-72.91-82.3-75.67-82.3z"/>
	<path class="st7" d="M-146.66-82.3h-51.04c-2.75,0-4.98-2.23-4.98-4.98v-51.04c0-2.75,2.23-4.98,4.98-4.98h51.04
		c2.75,0,4.98,2.23,4.98,4.98v51.04C-141.68-84.53-143.91-82.3-146.66-82.3z"/>
	<path class="st8" d="M-4.68-82.3h-51c-2.76,0-5-2.24-5-5v-51c0-2.76,2.24-5,5-5h51c2.76,0,5,2.24,5,5v51
		C0.32-84.54-1.92-82.3-4.68-82.3z"/>
	<path class="st9" d="M66.32-83.3h-51c-2.76,0-5-2.24-5-5v-51c0-2.76,2.24-5,5-5h51c2.76,0,5,2.24,5,5v51
		C71.32-85.54,69.08-83.3,66.32-83.3z"/>
</g>
</svg>
