<?xml version="1.0" encoding="utf-8"?>
<!-- Generator: Adobe Illustrator 25.2.3, SVG Export Plug-In . SVG Version: 6.00 Build 0)  -->
<svg version="1.1" id="Layer_1" xmlns="http://www.w3.org/2000/svg" xmlns:xlink="http://www.w3.org/1999/xlink" x="0px" y="0px"
	 viewBox="0 0 100 100" style="enable-background:new 0 0 100 100;" xml:space="preserve">
<style type="text/css">
	.st0{fill:#987942;}
	.st1{fill:#727373;}
</style>
<g>
	<path class="st0" d="M79.79,24.61l-0.2,2.24c-6.7,5.6-10.06,12.31-10.06,20.12c0,5.53,0.91,10.68,4.43,14.78
		c-0.85,0.33-0.62,0.23-1.01,0.36c-7.36,2.67-13.74,5.86-19.14,9.57c-1.95-4.63-2.93-9.12-2.93-13.48
		C50.88,41.99,60.52,30.79,79.79,24.61z"/>
	<path class="st0" d="M41.12,24.61l-0.2,2.24c-6.71,5.6-10.06,12.31-10.06,20.12c0,5.53,1.09,10.62,4.54,14.72
		c-0.78,0.33-0.73,0.29-1.12,0.42c-7.36,2.67-13.74,5.86-19.14,9.57c-1.95-4.63-2.93-9.12-2.93-13.48
		C12.21,41.99,21.84,30.79,41.12,24.61z"/>
	<path class="st1" d="M75.39,48.92c0,5.41,3,11.01,8.99,16.8c-7.3,2.41-14.23,5.63-20.8,9.67l-1.86-2.05
		c5.34-3.52,10.71-6.12,16.11-7.82l1.86-0.68l-0.39,0.1c-4.69-4.95-7.03-10.26-7.03-15.92c0-5.92,4.16-12.24,12.5-18.95l0.97-0.78
		l2.05,2.05l-1.07,0.79C79.17,38.12,75.39,43.71,75.39,48.92z"/>
	<path class="st1" d="M36.72,48.92c0,5.47,2.99,11.07,8.98,16.8c-7.35,2.41-14.29,5.63-20.8,9.67l-1.85-2.05
		c5.34-3.52,10.68-6.12,16.01-7.82l1.96-0.68l-0.39,0.1c-4.69-4.88-7.03-10.19-7.03-15.92c0-5.92,4.16-12.24,12.5-18.95l0.97-0.78
		l2.05,2.05l-1.07,0.79C40.5,38.12,36.72,43.71,36.72,48.92z"/>
</g>
</svg>
