<?xml version="1.0" encoding="utf-8"?>
<!-- Generator: Adobe Illustrator 25.2.2, SVG Export Plug-In . SVG Version: 6.00 Build 0)  -->
<svg version="1.1" id="Layer_1" xmlns="http://www.w3.org/2000/svg" xmlns:xlink="http://www.w3.org/1999/xlink" x="0px" y="0px"
	 viewBox="0 0 65.31 55.13" style="enable-background:new 0 0 65.31 55.13;" xml:space="preserve">
<style type="text/css">
	.st0{fill:#2D2D2D;}
	.st1{fill:#727272;}
</style>
<polygon class="st0" points="65.31,48.64 0,55.13 0,6.49 65.31,0 "/>
<path class="st1" d="M17.91,36.41c0-0.33,0.03-0.66,0.08-0.98c0.09-0.58,0.28-1.14,0.53-1.64l9.46-1.54
	c0.84,0.85,1.43,1.95,1.63,3.18c5.09-1.77,9.13-5.8,10.9-10.9c-1.23-0.2-2.34-0.79-3.19-1.64l1.54-9.46
	c0.51-0.25,1.06-0.44,1.64-0.53c0.32-0.06,0.64-0.08,0.98-0.08c3.26,0,5.9,2.64,5.9,5.9c0,13.03-10.56,23.59-23.59,23.59
	C20.55,42.31,17.91,39.67,17.91,36.41z"/>
</svg>
